<svg xmlns="http://www.w3.org/2000/svg" xmlns:xlink="http://www.w3.org/1999/xlink"><symbol id="sprite">
<symbol viewBox="0 0 21 20" id="nav-phone">
                    <path d="M16.3147 12.3893C15.9047 11.9629 15.4101 11.735 14.8859 11.735C14.366 11.735 13.8672 11.9587 13.4402 12.3851L12.1044 13.7147C11.9945 13.6556 11.8846 13.6007 11.7789 13.5459C11.6267 13.4699 11.483 13.3981 11.3604 13.3222C10.1091 12.5286 8.97196 11.4944 7.88132 10.1563C7.35291 9.48936 6.99782 8.92795 6.73995 8.35809C7.08659 8.04151 7.40786 7.71226 7.72068 7.39567C7.83905 7.27748 7.95741 7.15507 8.07578 7.03688C8.9635 6.15044 8.9635 5.00229 8.07578 4.11585L6.92173 2.96348C6.79068 2.83262 6.65541 2.69755 6.52859 2.56247C6.27495 2.30076 6.00863 2.03061 5.73386 1.77734C5.32381 1.37211 4.83345 1.15683 4.31772 1.15683C3.80199 1.15683 3.30317 1.37211 2.88045 1.77734C2.87622 1.78156 2.87622 1.78156 2.87199 1.78578L1.43471 3.23363C0.893623 3.77394 0.585031 4.43243 0.517395 5.19646C0.41594 6.42903 0.779486 7.57718 1.05849 8.32854C1.74331 10.1732 2.76631 11.8827 4.29236 13.7147C6.14391 15.9224 8.37168 17.6657 10.9165 18.8941C11.8888 19.3542 13.1866 19.8987 14.6365 19.9916C14.7253 19.9958 14.8183 20 14.9028 20C15.8793 20 16.6994 19.6496 17.342 18.9532C17.3462 18.9447 17.3547 18.9405 17.3589 18.932C17.5787 18.6661 17.8323 18.4255 18.0987 18.168C18.2804 17.995 18.4664 17.8134 18.6482 17.6235C19.0667 17.1887 19.2865 16.6822 19.2865 16.163C19.2865 15.6396 19.0625 15.1372 18.6355 14.7151L16.3147 12.3893ZM17.8281 16.8341C17.8239 16.8341 17.8239 16.8384 17.8281 16.8341C17.6633 17.0114 17.4942 17.1718 17.3124 17.3491C17.0376 17.6108 16.7586 17.8852 16.4965 18.1933C16.0696 18.6492 15.5665 18.8645 14.9071 18.8645C14.8437 18.8645 14.776 18.8645 14.7126 18.8603C13.4571 18.7801 12.2904 18.2904 11.4153 17.8725C9.02269 16.7159 6.92173 15.0739 5.17586 12.9929C3.73436 11.258 2.77054 9.65398 2.13222 7.93176C1.73908 6.88069 1.59535 6.06179 1.65876 5.28932C1.70103 4.79545 1.89126 4.386 2.24213 4.03565L3.68363 2.59624C3.89077 2.40207 4.11058 2.29654 4.32618 2.29654C4.59249 2.29654 4.80809 2.45694 4.94336 2.59202C4.94759 2.59624 4.95181 2.60046 4.95604 2.60468C5.2139 2.84529 5.45909 3.09433 5.71695 3.36026C5.848 3.49534 5.98327 3.63042 6.11854 3.76971L7.27259 4.92209C7.72068 5.36953 7.72068 5.7832 7.27259 6.23064C7.15 6.35305 7.03164 6.47546 6.90905 6.59366C6.55395 6.95667 6.21577 7.29437 5.848 7.62361C5.83954 7.63206 5.83109 7.63628 5.82686 7.64472C5.46332 8.00774 5.53095 8.36231 5.60704 8.60292C5.61127 8.61558 5.6155 8.62824 5.61972 8.64091C5.91986 9.36694 6.34259 10.0508 6.98514 10.8654L6.98936 10.8697C8.15609 12.3049 9.38623 13.4235 10.7432 14.2803C10.9165 14.3901 11.0941 14.4787 11.2631 14.5632C11.4153 14.6391 11.5591 14.7109 11.6816 14.7869C11.6986 14.7953 11.7155 14.808 11.7324 14.8164C11.8761 14.8882 12.0114 14.922 12.1509 14.922C12.5017 14.922 12.7216 14.7025 12.7934 14.6307L14.2392 13.1871C14.3829 13.0436 14.6112 12.8705 14.8775 12.8705C15.1396 12.8705 15.3552 13.0351 15.4862 13.1786C15.4904 13.1829 15.4904 13.1829 15.4947 13.1871L17.8239 15.5129C18.2593 15.9435 18.2593 16.3867 17.8281 16.8341Z" fill="#00B2FF"/>
                    <path d="M11.3095 4.75747C12.4171 4.9432 13.4232 5.46662 14.2264 6.26863C15.0295 7.07065 15.5495 8.07528 15.7397 9.18122C15.7862 9.45981 16.0272 9.65399 16.3019 9.65399C16.3358 9.65399 16.3654 9.64977 16.3992 9.64554C16.712 9.59489 16.9191 9.29941 16.8684 8.98705C16.6401 7.64895 16.006 6.42904 15.038 5.4624C14.0699 4.49576 12.8483 3.86258 11.5082 3.63464C11.1954 3.58399 10.9037 3.79083 10.8488 4.09897C10.7938 4.40711 10.9967 4.70681 11.3095 4.75747Z" fill="#00B2FF"/>
                    <path d="M20.4913 8.82242C20.1151 6.61899 19.0752 4.61395 17.4773 3.01836C15.8794 1.42277 13.8714 0.384369 11.6648 0.00868773C11.3562 -0.0461871 11.0645 0.16487 11.0095 0.473013C10.9588 0.785377 11.1659 1.07664 11.4788 1.13151C13.4487 1.46498 15.2453 2.39785 16.6741 3.82038C18.1029 5.24712 19.0329 7.0411 19.3669 9.00815C19.4134 9.28675 19.6543 9.48092 19.9291 9.48092C19.9629 9.48092 19.9925 9.4767 20.0263 9.47248C20.3349 9.42605 20.5463 9.13057 20.4913 8.82242Z" fill="#00B2FF"/>
 </symbol>
 <symbol viewBox="0 0 21 20" id="nav-mail">
                    <path d="M18.0584 0H2.94568C1.59663 0 0.5 1.441 0.5 3.2137V16.7863C0.5 18.559 1.59663 20 2.94568 20H18.0543C19.4034 20 20.5 18.559 20.5 16.7863V3.21914C20.5041 1.44644 19.4075 0 18.0584 0ZM19.3868 16.7863C19.3868 17.7488 18.7909 18.5318 18.0584 18.5318H2.94568C2.21322 18.5318 1.61732 17.7488 1.61732 16.7863V3.21914C1.61732 2.25666 2.21322 1.47363 2.94568 1.47363H18.0543C18.7868 1.47363 19.3827 2.25666 19.3827 3.21914V16.7863H19.3868Z" fill="#00B2FF"/>
                    <path d="M13.1133 9.83144L18.0047 4.06744C18.2323 3.79555 18.253 3.33334 18.0461 3.02883C17.8392 2.72975 17.4874 2.70256 17.2557 2.97445L10.5104 10.9299L9.19446 9.38554C9.19032 9.38011 9.18618 9.37467 9.18618 9.36923C9.15721 9.33117 9.12824 9.29854 9.09514 9.26591L3.74029 2.96901C3.50855 2.69713 3.1568 2.72431 2.94989 3.02883C2.74298 3.33334 2.76367 3.79555 2.99541 4.06744L7.94471 9.88038L3.0161 15.9435C2.79264 16.2208 2.78022 16.683 2.99127 16.9821C3.103 17.1343 3.25198 17.2159 3.40096 17.2159C3.53752 17.2159 3.67408 17.1506 3.78167 17.0201L8.78477 10.87L10.1421 12.4633C10.2497 12.5884 10.3821 12.6482 10.5145 12.6482C10.647 12.6482 10.7835 12.5829 10.887 12.4579L12.2816 10.8157L17.2557 17.0256C17.3633 17.1615 17.504 17.2268 17.6405 17.2268C17.7895 17.2268 17.9344 17.1506 18.0461 16.9984C18.2571 16.7047 18.2489 16.2371 18.0254 15.9598L13.1133 9.83144Z" fill="#00B2FF"/>
</symbol>
<symbol viewBox="0 0 30 30" id="vk">
              <path d="M21.617 17.4544C20.3818 16.2726 20.2935 16.2726 21.3523 14.9091C22.6758 13.1819 24.4405 11.0002 22.8523 11.0002H19.9406C19.4112 11.0002 19.323 11.3638 19.1465 11.8184C18.4406 13.5455 17.0289 15.8181 16.4995 15.4545C15.9701 15.0909 16.2348 13.7273 16.2348 11.5457C16.323 11.2729 16.2348 11.0002 16.0583 10.8184C15.8819 10.6366 15.6172 10.4548 15.3525 10.4548C14.9113 10.3639 14.4702 10.273 14.029 10.273C12.3526 10.273 11.2056 11.0002 11.8232 11.0911C12.9702 11.2729 12.882 13.8182 12.6173 14.9091C12.1761 16.8181 10.4115 13.4546 9.61736 11.7275C9.52913 11.2729 9.1762 11.0002 8.73504 11.0002H6.44099C6.08806 11.0002 5.82336 11.0911 5.82336 11.3638C5.82336 11.8184 8.02917 16.2726 10.0585 18.5452C12.0879 20.7269 14.1172 20.5451 15.529 20.5451C15.7054 20.5451 15.8819 20.4542 15.9701 20.3633C16.0583 20.2724 16.1466 20.0906 16.1466 19.9088C16.1466 18.4543 16.676 17.7271 17.6465 18.727C18.7053 19.8179 18.97 20.5451 20.2935 20.5451H22.6758C23.2934 20.5451 23.4699 20.3633 23.4699 20.0906C23.5581 19.4543 22.4993 18.2725 21.617 17.4544ZM15.3525 0.000910576C23.5581 0.182718 30.0873 7.00048 29.9991 15.2727C29.9109 23.5449 23.117 30.09 14.9113 29.9991C6.61745 29.9082 0 23.2722 0 15C0.0882327 6.63687 6.97038 -0.0899929 15.3525 0.000910576Z" fill="#F8FDFF"/>
            </symbol>
            <symbol viewBox="0 0 30 30" id="ok">
              <path d="M15.1711 12.6428C16.3282 12.6428 17.2282 11.6785 17.2068 10.6285C17.2282 9.57849 16.3496 8.59277 15.1925 8.59277C14.0782 8.59277 13.1568 9.49277 13.1568 10.6071C13.1568 11.7213 14.0568 12.6428 15.1711 12.6428Z" fill="#F8FDFF"/>
              <path d="M15 0C6.72856 0 0 6.72857 0 15C0 23.2929 6.72856 30 15 30C23.2928 30 29.9999 23.2714 29.9999 15C30.0214 6.72857 23.2928 0 15 0ZM15.2143 5.67857C17.9143 5.67857 20.1428 7.90714 20.1214 10.6286C20.1214 13.3714 17.8714 15.5786 15.1285 15.5357C12.4285 15.4929 10.2643 13.2857 10.2643 10.6071C10.2643 7.88571 12.4714 5.67857 15.2143 5.67857ZM20.7214 17.25C20.7214 17.2929 20.7 17.3143 20.7 17.3571C20.6357 17.7857 20.4214 18.1286 20.0571 18.3643C19.8214 18.5143 19.5643 18.6643 19.3071 18.7929C18.6643 19.1143 17.9785 19.3714 17.2714 19.5429C17.1857 19.5643 17.1857 19.5643 17.25 19.6286C17.6357 20.0143 18.0428 20.4214 18.4285 20.8071C18.9214 21.3 19.4357 21.8143 19.9285 22.3071C20.6357 23.0143 20.4428 24.1929 19.5428 24.6214C19.3928 24.7071 19.2214 24.7286 19.05 24.7714C18.9643 24.7714 18.8571 24.7714 18.7714 24.7714C18.75 24.7714 18.7285 24.7714 18.7285 24.75C18.3857 24.7071 18.1071 24.5357 17.85 24.3C16.9928 23.4429 16.1143 22.5643 15.2571 21.7071C15.1928 21.6429 15.1928 21.6429 15.1285 21.7071C14.25 22.5857 13.3928 23.4429 12.5143 24.3214C12.3643 24.4714 12.2143 24.5786 12.0214 24.6643C11.8928 24.7286 11.7428 24.75 11.6143 24.7714C11.5286 24.7714 11.4428 24.7714 11.3357 24.7714C11.2928 24.7714 11.2714 24.75 11.2286 24.75C10.65 24.6429 10.2643 24.3214 10.0928 23.7643C9.92141 23.2071 10.05 22.7143 10.4571 22.3071C10.8214 21.9429 11.1643 21.6 11.5286 21.2357C12.0643 20.7 12.6 20.1643 13.1143 19.65C13.1785 19.5857 13.1785 19.5857 13.0928 19.5643C13.0714 19.5643 13.0285 19.5429 13.0071 19.5429C12.0428 19.3071 11.1643 18.9214 10.3286 18.4071C9.8357 18.0857 9.59998 17.6143 9.66427 17.0357C9.77141 15.9643 10.9714 15.3857 11.8714 15.9643C12.0428 16.0714 12.1928 16.1571 12.3857 16.2429C13.3714 16.7357 14.4214 16.95 15.5143 16.8857C16.05 16.8643 16.5857 16.7571 17.1214 16.5857C17.6357 16.4143 18.0857 16.1786 18.5571 15.9214C19.3285 15.4714 20.3357 15.8357 20.6357 16.6714C20.6785 16.8 20.7 16.9071 20.7214 17.0357C20.7214 17.1 20.7214 17.1643 20.7214 17.25Z" fill="#F8FDFF"/>
            </symbol>
            <symbol viewBox="0 0 30 30" id="pinter">
              <path d="M14.9999 0C23.2847 0 30 6.71625 30 15.0001C30 23.2848 23.2847 30 14.9999 30C6.71522 30 0 23.2847 0 15.0001C0 6.71625 6.71532 0 14.9999 0Z" fill="#F8FDFF"/>
              <path d="M15 5C9.4823 5 5 9.4823 5 15C5 20.5177 9.4823 25 15 25C20.5177 25 25 20.5177 25 15C25 9.4823 20.5177 5 15 5ZM15 5.86957C20.0477 5.86957 24.1304 9.95225 24.1304 15C24.1304 20.0477 20.0477 24.1304 15 24.1304C14.0767 24.1304 13.186 23.9922 12.3463 23.7381C12.7203 23.1128 13.2032 22.219 13.395 21.481C13.509 21.0434 13.9776 19.2587 13.9776 19.2587C14.2821 19.84 15.1719 20.332 16.1192 20.332C18.9383 20.332 20.9706 17.7394 20.9706 14.5177C20.9706 11.4289 18.4502 9.11855 15.2072 9.11855C11.1725 9.11855 9.03108 11.8264 9.03108 14.775C9.03108 16.1462 9.7604 17.8531 10.9282 18.3967C11.105 18.4791 11.2 18.4434 11.2407 18.2719C11.2719 18.1418 11.4297 17.5073 11.5005 17.2121C11.5232 17.1179 11.5122 17.0365 11.436 16.9438C11.0495 16.475 10.7396 15.6138 10.7396 14.8106C10.7396 12.7487 12.3006 10.7532 14.9601 10.7532C17.2564 10.7532 18.8646 12.3186 18.8646 14.5567C18.8646 17.0853 17.5879 18.8375 15.9265 18.8375C15.0089 18.8375 14.3219 18.0784 14.5423 17.1476C14.8065 16.0366 15.3167 14.8378 15.3167 14.0353C15.3167 13.3177 14.9316 12.7191 14.1338 12.7191C13.1958 12.7191 12.4423 13.6889 12.4423 14.989C12.4423 15.8162 12.7225 16.3765 12.7225 16.3765C12.7225 16.3765 11.7959 20.2941 11.6262 21.0233C11.4561 21.7519 11.5017 22.7332 11.5718 23.4638C8.22658 22.1098 5.86957 18.8345 5.86957 15C5.86957 9.95225 9.95225 5.86957 15 5.86957Z" fill="#041827"/>
            </symbol>
</symbol></svg>